<svg width="75" height="25" viewBox="0 0 75 25" fill="none" xmlns="http://www.w3.org/2000/svg">
<mask id="mask0_96_433" style="mask-type:luminance" maskUnits="userSpaceOnUse" x="0" y="0" width="75" height="25">
<path d="M74.0392 0H0.35498V25H74.0392V0Z" fill="white"/>
</mask>
<g mask="url(#mask0_96_433)">
<path d="M8.57709 12.5378L13.2045 6.34599H11.2771C10.4145 6.34599 9.85557 6.65118 9.39945 7.25993L6.9532 10.5334L4.59372 7.25993C4.13595 6.65118 3.57861 6.34599 2.71447 6.34599H0.787045L5.35505 12.5378L0.35498 19.2887H2.18282C3.04535 19.2887 3.6027 18.9835 4.06046 18.3747L6.95163 14.5424L13.7282 23.9081C14.1586 24.5168 14.7432 24.8204 15.6058 24.8204H17.5846L8.57709 12.5378ZM45.5532 19.2839H48.1665V6.34599H45.5532V19.2839ZM24.8189 19.2839H27.4338V6.34599H24.8189V19.2839ZM64.4597 23.8518L73.9188 6.34599H72.4971C71.6346 6.34599 70.9741 6.5998 70.6195 7.25993L66.8965 14.1874L63.6726 7.25993C63.3514 6.57407 62.6575 6.34599 61.795 6.34599H60.4265L65.4057 16.9035L61.069 24.8204H62.4889C63.3674 24.8204 64.079 24.5425 64.4597 23.8566V23.8518ZM30.5514 6.34599V19.2887H33.1647V10.4064C33.9774 9.26441 35.1451 8.55447 36.5907 8.55447C38.5181 8.55447 39.84 9.77197 39.84 12.2086V18.0455C39.8309 18.2089 39.8561 18.3724 39.9138 18.5257C39.9714 18.6788 40.0603 18.8184 40.1748 18.9353C40.2893 19.0522 40.427 19.1441 40.5789 19.2049C40.7309 19.2657 40.8939 19.2943 41.0574 19.2887H42.4532V11.7508C42.4532 8.40191 40.3218 6.06651 37.2251 6.06651C35.7228 6.04061 34.2683 6.59526 33.1647 7.61487V6.34599H30.5514ZM53.0107 14.6982C53.0107 17.5155 54.7358 19.5168 57.8293 19.5168C58.4727 19.5249 59.1139 19.4395 59.7326 19.263L59.2058 16.9789C58.8146 17.0662 58.4148 17.1088 58.014 17.1059C56.7451 17.1059 55.6272 16.4216 55.6272 14.6452V8.675H59.2829L58.2164 6.34599H55.6272V1.14354L53.014 2.28555V6.34599H50.2481V8.675H53.014L53.0107 14.6982ZM16.7751 8.675V19.2758H19.3884V8.675H22.7389V6.34599H19.3884V5.38228C19.3884 3.17377 20.7086 2.43813 22.0016 2.43813C22.3023 2.4369 22.6015 2.47965 22.8899 2.56502L23.4231 0.255319C22.9016 0.073175 22.3514 -0.0128113 21.7992 0.00154129C18.5515 0.00154129 16.7751 2.41083 16.7751 5.33088V6.34599H15.4034L13.7538 8.675H16.7751Z" fill="black"/>
</g>
</svg>
