<svg width="151" height="33" viewBox="0 0 151 33" fill="none" xmlns="http://www.w3.org/2000/svg">
<mask id="mask0_96_393" style="mask-type:luminance" maskUnits="userSpaceOnUse" x="0" y="0" width="151" height="33">
<path d="M150.685 0H0.172974V33H150.685V0Z" fill="white"/>
</mask>
<g mask="url(#mask0_96_393)">
<path d="M20.5612 7.67641L20.5386 7.66311L20.4863 7.64709C20.5074 7.66491 20.5337 7.67522 20.5612 7.67641Z" fill="black"/>
<path d="M20.5702 7.67264C20.5672 7.67226 20.5642 7.67155 20.5614 7.67053V7.67644C20.5646 7.67603 20.5677 7.67471 20.5702 7.67264Z" fill="black"/>
<path d="M20.561 7.67672H20.5645V7.67456L20.561 7.67672Z" fill="black"/>
<path d="M20.8706 10.0297L20.9087 10.008L20.9229 9.99998L20.9358 9.98621C20.9116 9.99665 20.8895 10.0114 20.8706 10.0297Z" fill="black"/>
<path d="M20.6272 7.72785L20.5899 7.69236L20.5647 7.67859C20.5782 7.70259 20.6007 7.72026 20.6272 7.72785Z" fill="black"/>
<path d="M11.2551 30.6052C11.2254 30.6181 11.1993 30.6383 11.1793 30.6638L11.2028 30.6487C11.2188 30.6341 11.2414 30.6168 11.2551 30.6052Z" fill="black"/>
<path d="M16.6972 29.5332C16.6972 29.4995 16.6808 29.5057 16.6848 29.6256C16.6848 29.6158 16.6888 29.606 16.6906 29.5967C16.6928 29.5754 16.6946 29.5545 16.6972 29.5332Z" fill="black"/>
<path d="M16.1328 30.6052C16.1031 30.6181 16.077 30.6383 16.057 30.6638L16.0805 30.6487C16.0965 30.6341 16.1191 30.6168 16.1328 30.6052Z" fill="black"/>
<path d="M7.42272 30.8601C7.40012 30.8404 7.37247 30.8275 7.3429 30.8228C7.36684 30.8343 7.39077 30.8458 7.40673 30.8547L7.42272 30.8601Z" fill="black"/>
<path d="M6.56017 30.0332C6.55667 29.9982 6.54595 29.9643 6.52869 29.9337C6.54093 29.9656 6.55115 29.9982 6.55931 30.0314L6.56017 30.0332Z" fill="black"/>
<path d="M2.20081 9.96277L2.22121 9.98189L2.23451 9.98988C2.22427 9.97968 2.21297 9.97058 2.20081 9.96277Z" fill="black"/>
<path d="M12.3531 15.2444C11.1692 15.7519 9.82554 16.3272 8.0842 16.3272C7.35572 16.3258 6.63077 16.2257 5.92908 16.0298L7.13347 28.4093C7.17607 28.9268 7.41153 29.4092 7.79303 29.7609C8.17453 30.1126 8.67419 30.3077 9.19277 30.3077C9.19277 30.3077 10.9004 30.3965 11.4702 30.3965C12.0835 30.3965 13.9225 30.3077 13.9225 30.3077C14.441 30.3076 14.9405 30.1124 15.3219 29.7608C15.7033 29.4091 15.9387 28.9267 15.9813 28.4093L17.2713 14.7295C16.6948 14.5323 16.113 14.4014 15.4572 14.4014C14.3229 14.4009 13.4089 14.7921 12.3531 15.2444Z" fill="black"/>
<path d="M22.8407 8.82018L22.6594 7.90431C22.4966 7.08257 22.1273 6.30611 21.2847 6.00907C21.0147 5.91408 20.7082 5.87324 20.5012 5.67658C20.2941 5.47992 20.2329 5.17446 20.185 4.89123C20.0963 4.37136 20.013 3.85106 19.922 3.33207C19.8436 2.8859 19.7815 2.38468 19.577 1.97536C19.311 1.42574 18.7589 1.10433 18.2099 0.891672C17.9286 0.786539 17.6415 0.697605 17.3501 0.625301C15.9786 0.263037 14.5365 0.129853 13.1255 0.0539371C11.4319 -0.039625 9.73377 -0.0114361 8.04416 0.138287C6.7866 0.252827 5.46206 0.391341 4.26699 0.826854C3.83022 0.986234 3.38012 1.17758 3.04798 1.51542C2.64047 1.93051 2.50744 2.57247 2.80498 3.09011C3.0165 3.45771 3.3748 3.7174 3.75482 3.88923C4.2498 4.11061 4.76676 4.27905 5.29711 4.39178C6.77374 4.71853 8.30316 4.84684 9.81171 4.90142C11.4837 4.96898 13.1585 4.91425 14.8225 4.73762C15.234 4.69233 15.6448 4.63804 16.0548 4.57468C16.5377 4.50054 16.8477 3.86837 16.7054 3.42796C16.5351 2.90143 16.0775 2.69722 15.56 2.77668C15.4837 2.78867 15.4079 2.79977 15.3316 2.81087L15.2766 2.81886C15.1013 2.84106 14.926 2.86178 14.7507 2.88101C14.3885 2.92008 14.0255 2.95205 13.6616 2.97691C12.8466 3.03373 12.0293 3.05992 11.2125 3.06126C10.4099 3.06126 9.60686 3.03861 8.80599 2.98578C8.4406 2.96181 8.07611 2.93133 7.71249 2.89433C7.5471 2.87702 7.38215 2.85882 7.21716 2.83839L7.06018 2.81842L7.02607 2.81353L6.86332 2.79C6.53074 2.73984 6.19816 2.68212 5.86912 2.61243C5.83594 2.60505 5.80623 2.58655 5.78493 2.56C5.76366 2.53344 5.75204 2.50041 5.75204 2.46637C5.75204 2.43231 5.76366 2.39928 5.78493 2.37273C5.80623 2.34617 5.83594 2.32768 5.86912 2.3203H5.87533C6.16047 2.25948 6.44781 2.20754 6.73605 2.16226C6.83212 2.14716 6.92848 2.13236 7.02516 2.11786H7.02784C7.20831 2.10588 7.38966 2.07347 7.56927 2.05216C9.13179 1.88944 10.7036 1.83397 12.2736 1.88612C13.0359 1.90832 13.7978 1.95316 14.5565 2.0304C14.7196 2.04728 14.882 2.06503 15.0442 2.08501C15.1063 2.09256 15.1688 2.10143 15.2314 2.10898L15.3573 2.12718C15.7245 2.18194 16.0897 2.24838 16.453 2.32652C16.9914 2.44372 17.6827 2.4819 17.9221 3.07235C17.9984 3.2597 18.033 3.46792 18.0751 3.66459L18.1288 3.91543C18.1302 3.91992 18.1312 3.92451 18.1319 3.92917C18.2587 4.52111 18.3857 5.11305 18.5128 5.70499C18.5221 5.74872 18.5223 5.7939 18.5135 5.83771C18.5045 5.88152 18.4867 5.92305 18.4611 5.95966C18.4355 5.99628 18.4026 6.02722 18.3645 6.05053C18.3264 6.07384 18.2839 6.08906 18.2397 6.09521H18.2361L18.1585 6.10587L18.0818 6.1161C17.8388 6.14776 17.5955 6.17736 17.3519 6.20487C16.8721 6.25963 16.3916 6.30698 15.9103 6.34695C14.9539 6.42654 13.9957 6.47877 13.0355 6.50364C12.5462 6.51669 12.0571 6.52272 11.5682 6.52186C9.62192 6.5203 7.67736 6.40706 5.74406 6.18268C5.53477 6.15781 5.32548 6.13117 5.11616 6.1041C5.27848 6.12495 4.99821 6.08812 4.94146 6.08013C4.80842 6.06148 4.67538 6.04207 4.54238 6.02198C4.09583 5.95493 3.65195 5.87234 3.20629 5.79998C2.66752 5.71121 2.15224 5.75559 1.66491 6.02198C1.26488 6.24112 0.941105 6.57719 0.736793 6.98534C0.526603 7.42041 0.464079 7.89408 0.37007 8.36158C0.276062 8.82907 0.129727 9.33206 0.185157 9.81195C0.304441 10.8477 1.02769 11.6894 2.06799 11.8777C3.04666 12.0553 4.03062 12.1991 5.01728 12.3216C8.89305 12.7968 12.8086 12.8537 16.6965 12.4912C17.0131 12.4616 17.3293 12.4294 17.645 12.3944C17.7436 12.3836 17.8434 12.395 17.937 12.4277C18.0307 12.4605 18.1159 12.5138 18.1863 12.5838C18.2567 12.6537 18.3106 12.7386 18.344 12.8321C18.3774 12.9257 18.3894 13.0255 18.3793 13.1243L18.2809 14.0823C18.0825 16.0183 17.8842 17.954 17.6858 19.8896C17.4789 21.9223 17.2706 23.9549 17.061 25.9873C17.0019 26.5597 16.9427 27.132 16.8836 27.7041C16.8268 28.2674 16.8189 28.8486 16.712 29.4053C16.5435 30.2807 15.9515 30.8184 15.0877 31.0151C14.2963 31.1953 13.4879 31.29 12.6763 31.2974C11.7765 31.3023 10.8773 31.2623 9.97762 31.2672C9.0171 31.2725 7.84065 31.1837 7.09921 30.4681C6.44781 29.8394 6.35781 28.8552 6.2691 28.0042C6.15086 26.8774 6.03364 25.7508 5.91746 24.6244L5.26563 18.3607L4.84391 14.3079C4.8368 14.2408 4.82972 14.1747 4.82308 14.1072C4.7725 13.6237 4.43061 13.1505 3.89185 13.1749C3.43067 13.1953 2.90653 13.5878 2.96063 14.1072L3.27325 17.1119L3.91979 23.3272C4.10395 25.0926 4.28768 26.8584 4.47097 28.6244C4.50646 28.9627 4.53971 29.3018 4.57697 29.6401C4.77961 31.4887 6.18975 32.485 7.936 32.7655C8.9559 32.9298 10.0006 32.9635 11.0356 32.9804C12.3624 33.0017 13.7024 33.0528 15.0075 32.8122C16.9413 32.457 18.3922 31.1642 18.5993 29.1589C18.6584 28.58 18.7175 28.0009 18.7766 27.4217C18.9732 25.5062 19.1695 23.5906 19.3655 21.6748L20.0067 15.415L20.3007 12.5463C20.3154 12.404 20.3754 12.2703 20.4719 12.1648C20.5684 12.0594 20.6962 11.9878 20.8364 11.9607C21.3894 11.8528 21.9179 11.6686 22.3113 11.2473C22.9374 10.5764 23.062 9.70186 22.8407 8.82018ZM2.03961 9.43905C2.04804 9.43504 2.03252 9.50743 2.02587 9.54116C2.02453 9.49012 2.0272 9.44483 2.03961 9.43905ZM2.09327 9.8546C2.0977 9.85149 2.111 9.86924 2.12475 9.89053C2.10391 9.87101 2.09105 9.85637 2.09327 9.8546ZM2.14604 9.92429C2.1753 9.97713 2.1651 9.95671 2.14604 9.92429ZM2.25202 10.0104H2.25468C2.25468 10.0135 2.25956 10.0166 2.26133 10.0197C2.25839 10.0163 2.25556 10.0132 2.25202 10.0104ZM20.8107 9.88168C20.612 10.0708 20.3127 10.1587 20.0169 10.2026C16.7 10.6954 13.3348 10.9449 9.98152 10.8348C7.58169 10.7527 5.20707 10.4859 2.83114 10.1498C2.59834 10.117 2.34603 10.0743 2.18595 9.90253C1.88441 9.57846 2.03252 8.92583 2.111 8.53428C2.18284 8.17558 2.32031 7.69742 2.74645 7.64639C3.4116 7.56824 4.18406 7.84927 4.84214 7.94917C5.63442 8.07022 6.42961 8.16712 7.22781 8.23995C10.6343 8.55069 14.098 8.50233 17.4893 8.0477C18.1075 7.96453 18.7234 7.86792 19.3371 7.75782C19.8839 7.65969 20.4901 7.47546 20.8205 8.04239C21.047 8.42863 21.0772 8.94539 21.0422 9.38179C21.0314 9.57192 20.9489 9.75076 20.8107 9.88168Z" fill="black"/>
<path fill-rule="evenodd" clip-rule="evenodd" d="M40.9291 19.1081C40.7356 19.4782 40.4691 19.8005 40.1305 20.074C39.7915 20.3477 39.3961 20.5705 38.9441 20.7421C38.4925 20.914 38.0376 21.0294 37.5805 21.0883C37.1231 21.1473 36.6791 21.1422 36.2489 21.0721C35.8185 21.0025 35.4524 20.8603 35.1515 20.6455L35.4905 17.1198C35.8024 17.0125 36.1948 16.9024 36.6686 16.7897C37.1419 16.6772 37.6286 16.5965 38.1289 16.5483C38.6293 16.4999 39.1026 16.5056 39.5496 16.5644C39.9954 16.6234 40.3482 16.7656 40.6063 16.9911C40.746 17.1198 40.8648 17.2592 40.9616 17.4096C41.0583 17.5599 41.1175 17.7155 41.1392 17.8765C41.1926 18.3272 41.1229 18.7378 40.9291 19.1081ZM36.0067 11.5978C36.2328 11.4583 36.5043 11.3347 36.8217 11.2273C37.139 11.1203 37.4646 11.0449 37.7982 11.002C38.1315 10.9593 38.4571 10.9536 38.7748 10.9859C39.0918 11.0181 39.372 11.1066 39.6138 11.2514C39.8561 11.3964 40.0362 11.6058 40.1543 11.8792C40.2727 12.1531 40.3052 12.4993 40.2514 12.9178C40.2085 13.2505 40.0763 13.5324 39.8561 13.763C39.6355 13.994 39.3662 14.187 39.0492 14.3426C38.7315 14.4985 38.3954 14.6219 38.0405 14.7127C37.6852 14.8042 37.3433 14.8714 37.0155 14.9141C36.6874 14.9572 36.4021 14.9842 36.1603 14.9946C35.918 15.0054 35.7592 15.0107 35.684 15.0107L36.0067 11.5978ZM42.6721 16.8299C42.4999 16.4545 42.2688 16.1245 41.9782 15.8397C41.6879 15.5555 41.3432 15.349 40.9453 15.2201C41.1175 15.0806 41.2868 14.8606 41.4536 14.56C41.6204 14.2597 41.763 13.9321 41.8815 13.578C41.9995 13.2236 42.0804 12.867 42.1233 12.5073C42.1663 12.1478 42.1501 11.8392 42.0753 11.5814C41.8919 10.9377 41.6042 10.4332 41.2114 10.0682C40.8186 9.70341 40.3615 9.45115 39.8398 9.31145C39.3178 9.17237 38.7423 9.14255 38.1131 9.22301C37.4834 9.3035 36.8404 9.46178 36.1844 9.69791C36.1844 9.64438 36.1898 9.588 36.2006 9.52897C36.211 9.47016 36.2165 9.40828 36.2165 9.34373C36.2165 9.18278 36.1359 9.04348 35.9745 8.92525C35.8132 8.80716 35.6275 8.73755 35.4178 8.7159C35.208 8.69465 35.0034 8.73997 34.8044 8.85274C34.6052 8.96548 34.468 9.17237 34.3929 9.47241C34.3067 10.4385 34.2207 11.4421 34.1347 12.483C34.0485 13.5242 33.9572 14.5761 33.8603 15.6388C33.7635 16.7012 33.6666 17.7558 33.5698 18.8021C33.473 19.8487 33.3761 20.8548 33.2793 21.8207C33.3116 22.1105 33.3923 22.336 33.5215 22.4969C33.6505 22.6581 33.8012 22.7547 33.9733 22.7868C34.1453 22.819 34.3257 22.7892 34.5139 22.6981C34.702 22.6072 34.8663 22.4485 35.0063 22.2232C35.4365 22.4593 35.9207 22.6123 36.4588 22.6822C36.9968 22.7518 37.5426 22.7518 38.0968 22.6822C38.6506 22.6123 39.1969 22.481 39.7348 22.2876C40.2727 22.0946 40.7623 21.8529 41.2034 21.5633C41.6446 21.2735 42.0158 20.9432 42.3172 20.5731C42.6183 20.2026 42.8172 19.8029 42.9144 19.3738C43.0111 18.9337 43.0378 18.4937 42.9949 18.0536C42.9519 17.6136 42.8443 17.206 42.6721 16.8299Z" fill="black"/>
<path fill-rule="evenodd" clip-rule="evenodd" d="M58.4162 25.3302C58.357 25.6844 58.2732 26.0574 58.166 26.4493C58.0581 26.8408 57.9317 27.1979 57.7866 27.5199C57.6414 27.8418 57.4801 28.1018 57.3028 28.3006C57.1248 28.4991 56.9338 28.5825 56.7295 28.5504C56.5681 28.5285 56.4659 28.4266 56.423 28.2444C56.38 28.0616 56.38 27.8363 56.423 27.5682C56.4659 27.2998 56.5493 26.9965 56.6732 26.6584C56.7966 26.3204 56.9475 25.9848 57.1248 25.6523C57.3028 25.3194 57.5042 25.0004 57.7302 24.6944C57.9563 24.3887 58.1927 24.1336 58.4404 23.9297C58.4942 23.9941 58.5184 24.155 58.513 24.4128C58.5072 24.6703 58.475 24.9763 58.4162 25.3302ZM63.8872 18.3432C63.7421 18.1822 63.5644 18.0912 63.3547 18.0695C63.1449 18.0481 62.9323 18.1661 62.7171 18.4237C62.577 18.6812 62.3998 18.9282 62.1846 19.1643C61.9691 19.4006 61.746 19.6151 61.5145 19.8082C61.2835 20.0013 61.0629 20.1679 60.8531 20.3072C60.6434 20.4469 60.4791 20.5488 60.3607 20.6132C60.3177 20.2698 60.2935 19.8995 60.2881 19.5023C60.2823 19.1052 60.2907 18.7029 60.3123 18.295C60.3444 17.7154 60.4116 17.1306 60.5141 16.5401C60.6163 15.9498 60.7643 15.3702 60.9578 14.8012C60.9578 14.501 60.8878 14.2567 60.7481 14.0688C60.608 13.881 60.4387 13.7628 60.2397 13.7146C60.0405 13.6664 59.8365 13.6932 59.6264 13.7951C59.4166 13.8972 59.2365 14.0824 59.0859 14.3504C58.9567 14.7048 58.8086 15.1018 58.6422 15.5418C58.475 15.9819 58.287 16.43 58.0772 16.8861C57.8674 17.3426 57.6331 17.7852 57.375 18.2143C57.1169 18.6438 56.8345 19.025 56.5277 19.3575C56.2212 19.6902 55.8876 19.9506 55.5273 20.1383C55.1666 20.3262 54.777 20.4094 54.3572 20.3879C54.1633 20.3342 54.0236 20.1894 53.9373 19.9531C53.8514 19.7172 53.8001 19.4218 53.7842 19.0677C53.768 18.7135 53.7842 18.3244 53.8326 17.9004C53.881 17.4766 53.9456 17.0552 54.0261 16.6367C54.107 16.218 54.1958 15.821 54.2926 15.4454C54.3893 15.0698 54.4806 14.753 54.5669 14.4954C54.6962 14.1844 54.6962 13.9237 54.5669 13.7146C54.4377 13.5052 54.2604 13.3659 54.0344 13.2959C53.8084 13.2262 53.5716 13.2291 53.3243 13.3041C53.0766 13.3792 52.899 13.5455 52.7918 13.803C52.6087 14.2434 52.4419 14.7368 52.2914 15.2842C52.1405 15.8316 52.0195 16.398 51.9282 16.9827C51.8365 17.5679 51.7852 18.1475 51.7747 18.7217C51.774 18.759 51.7758 18.7946 51.7758 18.8318C51.5412 19.4557 51.3173 19.9273 51.105 20.2429C50.8307 20.651 50.5213 20.8281 50.1772 20.7741C50.0263 20.7098 49.927 20.5597 49.8786 20.3234C49.8299 20.0875 49.8136 19.7977 49.8299 19.4539C49.8465 19.1108 49.8866 18.7217 49.9508 18.2868C50.0158 17.8522 50.0963 17.4014 50.1931 16.9345C50.2902 16.4674 50.3924 15.9983 50.4996 15.5258C50.6072 15.0536 50.7039 14.6082 50.7906 14.1895C50.7798 13.8138 50.6693 13.5269 50.4595 13.3282C50.2498 13.1298 49.9563 13.052 49.5801 13.0947C49.3219 13.2021 49.1306 13.3418 49.0068 13.5134C48.8829 13.685 48.7836 13.9051 48.7085 14.1733C48.6652 14.313 48.6006 14.592 48.5147 15.0107C48.4284 15.429 48.3183 15.9096 48.184 16.4515C48.0493 16.9937 47.8908 17.5597 47.7078 18.15C47.5247 18.7402 47.3204 19.2746 47.0948 19.7519C46.8684 20.2294 46.6211 20.6132 46.3521 20.903C46.0832 21.1926 45.7925 21.3109 45.4806 21.2572C45.3084 21.2249 45.1983 21.0478 45.1499 20.7259C45.1015 20.4038 45.0932 20.007 45.1257 19.5346C45.1578 19.0624 45.2225 18.5444 45.3192 17.9811C45.416 17.4176 45.5153 16.8837 45.6178 16.379C45.72 15.8747 45.8142 15.429 45.9005 15.0428C45.9864 14.6564 46.0456 14.3988 46.0777 14.2701C46.0777 13.9589 46.0077 13.7095 45.868 13.5214C45.7279 13.3339 45.5586 13.2156 45.3597 13.1672C45.1604 13.119 44.956 13.1458 44.7463 13.2477C44.5365 13.3498 44.3564 13.5351 44.2055 13.803C44.1517 14.0928 44.0816 14.4284 43.9957 14.8093C43.9094 15.1903 43.8264 15.582 43.7459 15.9846C43.665 16.3872 43.5895 16.7815 43.5199 17.168C43.4498 17.5544 43.3986 17.8924 43.3664 18.1822C43.3448 18.4075 43.3206 18.6841 43.2939 19.0113C43.2668 19.3389 43.2534 19.6849 43.2534 20.0497C43.2534 20.4149 43.2801 20.777 43.3343 21.1364C43.3877 21.4961 43.4848 21.8262 43.6246 22.1265C43.7643 22.4271 43.9607 22.6738 44.2138 22.8671C44.4665 23.0602 44.7867 23.1675 45.1741 23.1891C45.5719 23.2104 45.9189 23.1811 46.2149 23.1005C46.511 23.02 46.7796 22.8938 47.0218 22.722C47.2641 22.5506 47.4843 22.3466 47.6836 22.1103C47.8825 21.8744 48.0789 21.6168 48.2728 21.3376C48.4555 21.7457 48.6923 22.0621 48.9829 22.2876C49.2732 22.5129 49.5801 22.6473 49.9028 22.6899C50.2252 22.7326 50.5538 22.6875 50.8873 22.5531C51.2206 22.4191 51.5217 22.191 51.791 21.8689C51.9683 21.6714 52.1354 21.4469 52.2921 21.1988C52.3585 21.315 52.4293 21.4271 52.5091 21.5306C52.773 21.8744 53.1308 22.1103 53.5828 22.2392C54.0665 22.3681 54.5399 22.3897 55.0027 22.3037C55.4652 22.2179 55.9063 22.0621 56.3259 21.8368C56.7457 21.6114 57.1356 21.3405 57.4963 21.0237C57.8566 20.7071 58.1711 20.3773 58.4404 20.0335C58.4292 20.2805 58.4241 20.5141 58.4241 20.7339C58.4241 20.9541 58.4187 21.1926 58.4079 21.4504C57.87 21.8262 57.3616 22.277 56.8829 22.8027C56.4038 23.3284 55.9843 23.8893 55.624 24.4851C55.2637 25.0807 54.981 25.6844 54.777 26.2961C54.5723 26.9082 54.4727 27.4795 54.4781 28.011C54.4835 28.5422 54.6099 29.0062 54.8572 29.4033C55.1049 29.8006 55.5081 30.0849 56.0677 30.2566C56.649 30.4392 57.1598 30.4443 57.601 30.2728C58.0422 30.101 58.4267 29.8165 58.7548 29.4195C59.083 29.0224 59.352 28.5422 59.5621 27.9787C59.7719 27.4152 59.9387 26.8276 60.0621 26.2158C60.186 25.6041 60.2639 25.0026 60.2961 24.4128C60.3286 23.8223 60.3286 23.2962 60.2961 22.8348C61.2214 22.4485 61.9799 21.9602 62.5716 21.3697C63.1633 20.7798 63.6529 20.1571 64.0403 19.5023C64.1587 19.3414 64.1991 19.1481 64.1616 18.9228C64.1237 18.6974 64.0323 18.5041 63.8872 18.3432Z" fill="black"/>
<path fill-rule="evenodd" clip-rule="evenodd" d="M84.2462 17.313C84.2783 17.0663 84.3267 16.8058 84.3913 16.5322C84.4556 16.2585 84.5364 15.9928 84.6336 15.7352C84.7299 15.4776 84.843 15.255 84.9722 15.0671C85.1014 14.8794 85.2386 14.7452 85.3838 14.6646C85.5293 14.5843 85.6769 14.5922 85.8278 14.6886C85.9892 14.7855 86.0885 14.9893 86.1264 15.3004C86.1636 15.6121 86.1264 15.9446 86.0134 16.2987C85.9 16.6531 85.6986 16.9856 85.408 17.2969C85.1177 17.6083 84.7249 17.812 84.2299 17.9086C84.2083 17.7587 84.2137 17.5599 84.2462 17.313ZM89.8381 17.9729C89.6605 17.9196 89.4912 17.9141 89.3298 17.957C89.1684 17.9999 89.0659 18.1126 89.0233 18.2952C88.9366 18.6386 88.7998 18.9901 88.6113 19.3495C88.4233 19.7092 88.1918 20.0499 87.9178 20.372C87.6434 20.6939 87.3337 20.9784 86.9896 21.2251C86.6452 21.472 86.2849 21.6491 85.9083 21.7564C85.5314 21.8746 85.2195 21.8879 84.9722 21.7966C84.7249 21.7057 84.5285 21.5499 84.3834 21.3299C84.2382 21.1099 84.1332 20.8442 84.0685 20.5329C84.0039 20.2217 83.966 19.8998 83.9555 19.5669C84.5686 19.6099 85.1148 19.5001 85.5939 19.2368C86.0722 18.9741 86.4784 18.6251 86.812 18.1904C87.1456 17.7558 87.3983 17.2674 87.5705 16.7254C87.7424 16.1835 87.8395 15.6441 87.8611 15.1073C87.8716 14.6029 87.7965 14.1764 87.6351 13.8276C87.4738 13.4789 87.2557 13.2075 86.9813 13.0145C86.7073 12.8212 86.3925 12.7085 86.0372 12.6764C85.6827 12.6442 85.3217 12.6926 84.9559 12.8212C84.5148 12.9716 84.1411 13.2156 83.8346 13.5539C83.5277 13.8919 83.2721 14.2838 83.0678 14.7291C82.8634 15.1746 82.7021 15.6547 82.5836 16.1698C82.4652 16.6852 82.3793 17.1923 82.3255 17.6915C82.2771 18.1394 82.2511 18.5677 82.2421 18.9811C82.219 19.0336 82.1966 19.084 82.1721 19.1402C82.0053 19.5215 81.8114 19.8945 81.5912 20.2592C81.3706 20.6242 81.1258 20.9302 80.8569 21.1769C80.5879 21.4239 80.3081 21.5096 80.0175 21.4345C79.8456 21.3918 79.7514 21.1929 79.7351 20.8389C79.7193 20.4845 79.7377 20.0446 79.7915 19.5186C79.8456 18.9929 79.9073 18.4237 79.9774 17.812C80.0471 17.2003 80.0821 16.6155 80.0821 16.0573C80.0821 15.5743 79.9907 15.1102 79.8077 14.6646C79.6247 14.2195 79.3745 13.849 79.0575 13.5539C78.7398 13.2585 78.3715 13.0626 77.952 12.9662C77.5321 12.8694 77.0805 12.934 76.5964 13.1593C76.1119 13.3848 75.7274 13.7013 75.4425 14.1092C75.157 14.5173 74.8959 14.9464 74.6595 15.3972C74.5732 15.0536 74.4472 14.7346 74.2804 14.4393C74.1132 14.1441 73.9092 13.8866 73.667 13.6664C73.4247 13.4466 73.1529 13.2749 72.8522 13.1513C72.5507 13.0281 72.233 12.9662 71.8998 12.9662C71.577 12.9662 71.2784 13.0281 71.0041 13.1513C70.7297 13.2749 70.4795 13.4329 70.2535 13.6262C70.0275 13.8196 69.8231 14.0367 69.6401 14.2783C69.4574 14.5197 69.2957 14.7587 69.1563 14.9946C69.1343 14.7156 69.1101 14.4716 69.0834 14.262C69.0567 14.0528 69.0079 13.8758 68.9383 13.731C68.8682 13.5859 68.7689 13.4761 68.6397 13.4009C68.5104 13.3259 68.3278 13.2881 68.0913 13.2881C67.9725 13.2881 67.8541 13.3123 67.736 13.3604C67.6173 13.4088 67.5122 13.4761 67.4212 13.5618C67.3295 13.648 67.2598 13.7524 67.2115 13.8757C67.1627 13.9991 67.1497 14.1415 67.171 14.3024C67.1815 14.4207 67.2115 14.5626 67.2598 14.7291C67.3082 14.8956 67.3537 15.1131 67.397 15.381C67.44 15.6494 67.475 15.9742 67.5017 16.3551C67.5288 16.7362 67.5368 17.2031 67.5259 17.7558C67.5151 18.3087 67.475 18.9551 67.405 19.6957C67.3349 20.4363 67.2245 21.295 67.0743 22.2715C67.0526 22.497 67.1385 22.6796 67.3324 22.819C67.5259 22.9583 67.7465 23.0388 67.9942 23.0604C68.2415 23.0819 68.4758 23.0388 68.696 22.9318C68.9166 22.8242 69.0433 22.6364 69.0755 22.3683C69.1076 21.8638 69.1697 21.3272 69.261 20.7582C69.3524 20.1896 69.4654 19.6261 69.6 19.0679C69.7343 18.5099 69.8874 17.9786 70.06 17.4739C70.2318 16.9695 70.4232 16.5242 70.6329 16.1378C70.8427 15.7513 71.0607 15.4429 71.2864 15.2121C71.5124 14.9813 71.7489 14.8659 71.9965 14.8659C72.298 14.8659 72.5316 15.0026 72.6987 15.2763C72.8652 15.5501 72.9836 15.9019 73.0536 16.3308C73.1236 16.7603 73.1558 17.2301 73.1507 17.7397C73.145 18.2495 73.1236 18.7405 73.0861 19.2127C73.0482 19.6851 73.0052 20.1062 72.9569 20.4765C72.9085 20.8468 72.8735 21.102 72.8522 21.2413C72.8522 21.4882 72.946 21.6838 73.1341 21.8289C73.3226 21.9737 73.5323 22.0597 73.7638 22.0864C73.9952 22.1134 74.2129 22.0703 74.4176 21.9575C74.6219 21.8448 74.74 21.6546 74.7725 21.3861C74.88 20.6134 75.0281 19.8381 75.2162 19.0599C75.4043 18.2817 75.6198 17.5843 75.862 16.967C76.1039 16.3498 76.3729 15.8453 76.6689 15.4536C76.9646 15.062 77.2794 14.8659 77.613 14.8659C77.7849 14.8659 77.917 14.9842 78.0083 15.2201C78.0997 15.4562 78.1455 15.7781 78.1455 16.186C78.1455 16.4866 78.1213 16.7953 78.073 17.1118C78.0246 17.4284 77.9683 17.7558 77.9033 18.0938C77.839 18.4321 77.7823 18.778 77.734 19.1322C77.6856 19.4866 77.6614 19.8567 77.6614 20.2431C77.6614 20.5115 77.6881 20.8227 77.7419 21.1769C77.7957 21.5309 77.8979 21.8667 78.0484 22.183C78.1993 22.4998 78.4062 22.768 78.6701 22.9879C78.9337 23.2079 79.2698 23.318 79.6785 23.318C80.2918 23.318 80.8352 23.1865 81.3089 22.9236C81.7822 22.6608 82.1883 22.3174 82.5273 21.8934C82.5447 21.8711 82.5609 21.8474 82.5779 21.8254C82.6039 21.8881 82.627 21.9545 82.6562 22.0141C82.8876 22.4863 83.2024 22.8511 83.6007 23.1089C83.9982 23.3664 84.4664 23.5086 85.0047 23.5355C85.5426 23.5621 86.1286 23.4628 86.764 23.2376C87.2369 23.0658 87.6485 22.8511 87.9983 22.5936C88.3478 22.336 88.6626 22.0221 88.9424 21.6518C89.2222 21.2815 89.4775 20.8548 89.7092 20.372C89.9407 19.8887 90.1742 19.3363 90.4111 18.7135C90.454 18.5422 90.4136 18.3892 90.2901 18.2548C90.1663 18.1208 90.0157 18.0268 89.8381 17.9729Z" fill="black"/>
<path fill-rule="evenodd" clip-rule="evenodd" d="M98.6095 16.1774C98.5554 16.4941 98.4828 16.8432 98.3915 17.2239C98.2998 17.605 98.1842 17.9994 98.0445 18.4073C97.9044 18.8152 97.7326 19.1828 97.5282 19.5101C97.3235 19.8376 97.0896 20.0977 96.826 20.2909C96.5621 20.4841 96.2585 20.5646 95.9141 20.5323C95.7419 20.511 95.6101 20.393 95.5188 20.1781C95.4271 19.9637 95.3787 19.6898 95.3733 19.357C95.3679 19.0246 95.3975 18.6596 95.4621 18.2623C95.5267 17.8654 95.6263 17.4762 95.761 17.095C95.8953 16.7143 96.0596 16.3626 96.2527 16.0405C96.4466 15.7186 96.6697 15.469 96.9228 15.292C97.1755 15.1149 97.4528 15.032 97.7539 15.0424C98.055 15.0532 98.3777 15.2033 98.7225 15.4932C98.7005 15.6329 98.6633 15.861 98.6095 16.1774ZM104.347 17.409C104.18 17.3232 104.008 17.3046 103.831 17.3528C103.653 17.401 103.526 17.5648 103.451 17.8438C103.408 18.1444 103.311 18.4984 103.161 18.9063C103.01 19.3142 102.824 19.7008 102.604 20.0654C102.383 20.4304 102.131 20.7337 101.845 20.9751C101.56 21.2167 101.257 21.3268 100.934 21.305C100.664 21.2837 100.476 21.1469 100.369 20.8946C100.261 20.6424 100.204 20.326 100.199 19.9447C100.194 19.5639 100.232 19.1346 100.312 18.6569C100.393 18.1794 100.49 17.7045 100.603 17.2319C100.716 16.7599 100.831 16.3062 100.95 15.8716C101.068 15.437 101.165 15.0693 101.24 14.7689C101.327 14.5005 101.299 14.2726 101.159 14.0845C101.02 13.897 100.845 13.7626 100.635 13.6821C100.425 13.6016 100.213 13.5802 99.9967 13.6178C99.7818 13.6553 99.6424 13.7707 99.5774 13.9637C98.9427 13.4164 98.3322 13.1212 97.7459 13.0783C97.1593 13.0355 96.6185 13.1643 96.1238 13.4648C95.6289 13.7652 95.1906 14.1999 94.8086 14.7689C94.4267 15.3379 94.1173 15.9576 93.8804 16.6284C93.644 17.2991 93.4959 17.9835 93.4367 18.681C93.3775 19.3787 93.423 20.0147 93.5739 20.5889C93.7248 21.163 93.9905 21.6327 94.3729 21.9973C94.7545 22.3623 95.274 22.5449 95.9303 22.5449C96.2206 22.5449 96.5004 22.4859 96.7694 22.3678C97.0383 22.2496 97.286 22.1101 97.512 21.9491C97.7376 21.7882 97.9369 21.6191 98.1091 21.442C98.281 21.2649 98.4156 21.1174 98.5124 20.9992C98.5875 21.3856 98.7117 21.7132 98.8835 21.9814C99.0557 22.2496 99.2521 22.47 99.4727 22.6413C99.693 22.8129 99.9247 22.9391 100.167 23.0198C100.409 23.1003 100.643 23.1405 100.869 23.1405C101.375 23.1405 101.848 22.9687 102.289 22.6252C102.73 22.282 103.126 21.8605 103.476 21.3615C103.825 20.8623 104.113 20.3366 104.339 19.7837C104.565 19.231 104.716 18.74 104.791 18.3105C104.866 18.1496 104.853 17.9807 104.751 17.8036C104.648 17.6265 104.514 17.4952 104.347 17.409Z" fill="black"/>
<path fill-rule="evenodd" clip-rule="evenodd" d="M133.397 26.2969C133.306 26.6617 133.163 26.9705 132.97 27.2225C132.776 27.4748 132.534 27.6063 132.243 27.6171C132.061 27.6277 131.921 27.5311 131.824 27.3273C131.727 27.1233 131.66 26.8604 131.622 26.5385C131.584 26.2164 131.568 25.8567 131.574 25.4597C131.579 25.0626 131.595 24.6709 131.622 24.2844C131.649 23.8982 131.681 23.5383 131.719 23.2058C131.756 22.8729 131.786 22.6158 131.808 22.4332C132.173 22.4761 132.478 22.6342 132.72 22.9081C132.962 23.1817 133.147 23.5063 133.276 23.8821C133.406 24.2577 133.481 24.6629 133.502 25.0976C133.524 25.5322 133.489 25.9319 133.397 26.2969ZM127.555 26.2969C127.464 26.6617 127.321 26.9705 127.127 27.2225C126.934 27.4748 126.692 27.6063 126.401 27.6171C126.218 27.6277 126.078 27.5311 125.982 27.3273C125.885 27.1233 125.817 26.8604 125.78 26.5385C125.742 26.2164 125.726 25.8567 125.732 25.4597C125.737 25.0626 125.753 24.6709 125.78 24.2844C125.807 23.8982 125.839 23.5383 125.877 23.2058C125.914 22.8729 125.944 22.6158 125.965 22.4332C126.331 22.4761 126.636 22.6342 126.877 22.9081C127.119 23.1817 127.305 23.5063 127.434 23.8821C127.563 24.2577 127.638 24.6629 127.66 25.0976C127.681 25.5322 127.646 25.9319 127.555 26.2969ZM121.56 17.1526C121.549 17.41 121.524 17.6381 121.487 17.8366C121.449 18.0356 121.398 18.1614 121.333 18.2151C121.215 18.1506 121.07 17.9845 120.898 17.7159C120.726 17.4477 120.591 17.1442 120.494 16.8062C120.398 16.4682 120.368 16.1357 120.406 15.8081C120.443 15.4809 120.613 15.2262 120.914 15.0434C121.032 14.979 121.134 15.0031 121.22 15.1159C121.307 15.2286 121.376 15.3922 121.431 15.6069C121.484 15.8217 121.522 16.0685 121.543 16.3475C121.565 16.6267 121.57 16.8949 121.56 17.1526ZM120.131 20.3644C119.964 20.5412 119.779 20.6942 119.575 20.8231C119.37 20.952 119.16 21.0486 118.945 21.1129C118.73 21.1775 118.536 21.1934 118.364 21.1611C117.88 21.0647 117.508 20.8552 117.251 20.5333C116.992 20.2114 116.828 19.8331 116.758 19.3985C116.688 18.9637 116.696 18.4994 116.782 18.0057C116.868 17.5121 117.013 17.0534 117.218 16.6293C117.422 16.2053 117.67 15.8403 117.96 15.5346C118.251 15.2286 118.568 15.0383 118.913 14.9629C118.784 15.5103 118.741 16.0767 118.784 16.6614C118.827 17.2464 118.967 17.7964 119.203 18.3115C119.354 18.6232 119.534 18.9073 119.744 19.1649C119.954 19.4226 120.209 19.6426 120.511 19.825C120.424 20.0076 120.298 20.1873 120.131 20.3644ZM137.989 17.3136C138.021 17.0668 138.07 16.8062 138.134 16.5325C138.199 16.259 138.279 15.9933 138.376 15.7357C138.473 15.478 138.586 15.2554 138.715 15.0677C138.844 14.88 138.982 14.7456 139.127 14.6651C139.272 14.5847 139.42 14.5926 139.57 14.6892C139.732 14.786 139.831 14.9899 139.869 15.3009C139.907 15.6124 139.869 15.9449 139.756 16.2993C139.643 16.6534 139.442 16.9862 139.151 17.2972C138.861 17.6089 138.468 17.8125 137.973 17.9092C137.951 17.759 137.957 17.5605 137.989 17.3136ZM144.493 17.3136C144.525 17.0668 144.574 16.8062 144.638 16.5325C144.703 16.259 144.784 15.9933 144.88 15.7357C144.977 15.478 145.09 15.2554 145.219 15.0677C145.348 14.88 145.485 14.7456 145.631 14.6651C145.776 14.5847 145.924 14.5926 146.075 14.6892C146.236 14.786 146.335 14.9899 146.373 15.3009C146.411 15.6124 146.373 15.9449 146.26 16.2993C146.147 16.6534 145.945 16.9862 145.655 17.2972C145.365 17.6089 144.972 17.8125 144.477 17.9092C144.455 17.759 144.461 17.5605 144.493 17.3136ZM150.537 18.2553C150.413 18.1214 150.263 18.0274 150.085 17.9735C149.908 17.92 149.738 17.9146 149.577 17.9576C149.415 18.0004 149.313 18.1132 149.27 18.2956C149.184 18.6391 149.047 18.9906 148.859 19.3499C148.67 19.7098 148.439 20.0504 148.165 20.3723C147.89 20.6942 147.581 20.9789 147.237 21.2257C146.892 21.4726 146.532 21.6497 146.156 21.7567C145.779 21.8752 145.467 21.8885 145.219 21.7972C144.972 21.7061 144.775 21.5504 144.63 21.3305C144.485 21.1103 144.38 20.8447 144.315 20.5333C144.251 20.2222 144.213 19.9003 144.202 19.5674C144.816 19.6105 145.362 19.5006 145.841 19.2374C146.319 18.9745 146.726 18.6254 147.059 18.1908C147.392 17.7564 147.646 17.268 147.818 16.726C147.99 16.1839 148.086 15.6447 148.108 15.1079C148.118 14.6034 148.043 14.1768 147.882 13.8279C147.721 13.4793 147.503 13.208 147.229 13.015C146.954 12.8216 146.64 12.709 146.284 12.6768C145.93 12.6445 145.569 12.6931 145.203 12.8216C144.762 12.9721 144.388 13.2162 144.082 13.5542C143.775 13.8924 143.519 14.2844 143.315 14.7294C143.11 15.1751 142.949 15.6551 142.83 16.1704C142.712 16.6855 142.626 17.1928 142.573 17.6918C142.52 18.1761 142.492 18.6395 142.485 19.0831C142.445 19.1716 142.401 19.2604 142.354 19.3499C142.166 19.7098 141.935 20.0504 141.66 20.3723C141.386 20.6942 141.077 20.9789 140.733 21.2257C140.388 21.4726 140.028 21.6497 139.651 21.7567C139.274 21.8752 138.962 21.8885 138.715 21.7972C138.468 21.7061 138.271 21.5504 138.126 21.3305C137.981 21.1103 137.876 20.8447 137.811 20.5333C137.747 20.2222 137.709 19.9003 137.698 19.5674C138.312 19.6105 138.858 19.5006 139.336 19.2374C139.815 18.9745 140.221 18.6254 140.555 18.1908C140.889 17.7564 141.141 17.268 141.313 16.726C141.485 16.1839 141.582 15.6447 141.604 15.1079C141.615 14.6034 141.539 14.1768 141.378 13.8279C141.217 13.4793 140.999 13.208 140.724 13.015C140.45 12.8216 140.135 12.709 139.78 12.6768C139.425 12.6445 139.065 12.6931 138.699 12.8216C138.258 12.9721 137.884 13.2162 137.578 13.5542C137.271 13.8924 137.015 14.2844 136.811 14.7294C136.606 15.1751 136.445 15.6551 136.327 16.1704C136.208 16.6855 136.122 17.1928 136.068 17.6918C136.038 17.9733 136.018 18.2461 136.002 18.5141C135.898 18.6023 135.797 18.6912 135.689 18.7784C135.318 19.079 134.928 19.3499 134.519 19.5915C134.11 19.8331 133.685 20.0317 133.244 20.1873C132.803 20.3429 132.351 20.4369 131.888 20.469L132.889 9.77894C132.954 9.55347 132.921 9.35514 132.792 9.18339C132.663 9.01159 132.496 8.89354 132.292 8.82921C132.087 8.76465 131.869 8.77018 131.638 8.84514C131.407 8.92051 131.216 9.09227 131.065 9.36024C130.99 9.76831 130.912 10.3263 130.831 11.0346C130.751 11.743 130.67 12.5158 130.589 13.353C130.509 14.1902 130.428 15.0542 130.347 15.9449C130.266 16.836 130.196 17.6677 130.138 18.4404C130.135 18.4747 130.132 18.5057 130.13 18.5397C130.036 18.6193 129.944 18.6996 129.847 18.7784C129.476 19.079 129.085 19.3499 128.677 19.5915C128.268 19.8331 127.843 20.0317 127.402 20.1873C126.96 20.3429 126.508 20.4369 126.046 20.469L127.047 9.77894C127.111 9.55347 127.079 9.35514 126.95 9.18339C126.821 9.01159 126.654 8.89354 126.45 8.82921C126.245 8.76465 126.027 8.77018 125.796 8.84514C125.564 8.92051 125.374 9.09227 125.223 9.36024C125.148 9.76831 125.07 10.3263 124.989 11.0346C124.908 11.743 124.828 12.5158 124.747 13.353C124.666 14.1902 124.586 15.0542 124.505 15.9449C124.424 16.836 124.354 17.6677 124.295 18.4404C124.294 18.4559 124.293 18.47 124.292 18.4855C124.122 18.5637 123.938 18.6324 123.738 18.69C123.534 18.7492 123.303 18.7841 123.044 18.7947C123.087 18.6013 123.122 18.3867 123.149 18.1506C123.176 17.9146 123.198 17.6677 123.214 17.41C123.23 17.1526 123.235 16.8949 123.23 16.6373C123.224 16.3796 123.211 16.1436 123.19 15.9288C123.136 15.4676 123.036 15.0301 122.891 14.6167C122.746 14.2037 122.549 13.8577 122.302 13.5783C122.054 13.2993 121.745 13.1114 121.374 13.015C121.003 12.9184 120.57 12.9505 120.075 13.1114C119.343 13.015 118.684 13.0822 118.098 13.3128C117.511 13.5438 117.003 13.879 116.573 14.3189C116.142 14.7593 115.79 15.2768 115.516 15.8726C115.241 16.4682 115.058 17.0801 114.967 17.7078C114.928 17.9739 114.909 18.2388 114.903 18.5031C114.737 18.8433 114.554 19.1407 114.353 19.3903C114.069 19.7445 113.773 20.0343 113.466 20.2596C113.159 20.4851 112.855 20.6569 112.554 20.7749C112.253 20.8932 111.984 20.9736 111.747 21.0163C111.467 21.07 111.198 21.0756 110.94 21.0324C110.682 20.9898 110.445 20.8662 110.23 20.6622C110.058 20.512 109.926 20.2704 109.835 19.9377C109.743 19.605 109.69 19.2269 109.673 18.8027C109.657 18.3787 109.673 17.9359 109.722 17.4745C109.77 17.0131 109.853 16.5756 109.972 16.1624C110.09 15.7492 110.241 15.379 110.424 15.0513C110.606 14.7243 110.821 14.4907 111.069 14.3512C111.209 14.3728 111.296 14.4558 111.328 14.6006C111.36 14.7456 111.368 14.9174 111.352 15.1159C111.336 15.3146 111.311 15.5184 111.279 15.7276C111.247 15.937 111.231 16.1116 111.231 16.2509C111.285 16.5407 111.389 16.7662 111.545 16.9271C111.701 17.0881 111.876 17.1822 112.07 17.2088C112.263 17.2357 112.454 17.1902 112.643 17.0719C112.831 16.9541 112.984 16.7662 113.103 16.5084C113.114 16.5193 113.13 16.5246 113.151 16.5246L113.377 14.48C113.442 14.2009 113.398 13.9541 113.248 13.7395C113.097 13.5248 112.898 13.4012 112.651 13.3692C112.339 12.9184 111.916 12.6797 111.384 12.6527C110.851 12.6259 110.305 12.8003 109.746 13.176C109.402 13.4231 109.098 13.7636 108.834 14.1982C108.57 14.633 108.355 15.1159 108.188 15.6471C108.021 16.1784 107.903 16.7394 107.834 17.3297C107.764 17.92 107.75 18.4943 107.793 19.0521C107.836 19.6105 107.936 20.1364 108.092 20.6299C108.247 21.1237 108.465 21.537 108.746 21.8694C108.982 22.1593 109.251 22.3715 109.552 22.5057C109.853 22.6399 110.168 22.7228 110.496 22.7551C110.824 22.7871 111.15 22.7736 111.473 22.7148C111.796 22.656 112.102 22.5729 112.393 22.4653C112.769 22.326 113.157 22.1487 113.555 21.934C113.953 21.7196 114.335 21.4618 114.701 21.1611C114.893 21.0031 115.078 20.8307 115.257 20.6458C115.339 20.8476 115.43 21.0429 115.54 21.2257C115.83 21.7085 116.223 22.1004 116.718 22.4009C117.212 22.7013 117.821 22.846 118.542 22.8356C119.316 22.8247 120.032 22.6291 120.688 22.2479C121.344 21.8672 121.882 21.306 122.302 20.5656C122.931 20.5656 123.549 20.4622 124.157 20.2569C124.152 20.3219 124.147 20.3903 124.142 20.453C124.099 21.0219 124.077 21.4081 124.077 21.6121C124.066 21.9663 124.043 22.4036 124.005 22.924C123.967 23.4446 123.943 23.992 123.932 24.5661C123.921 25.1402 123.943 25.7199 123.996 26.3051C124.051 26.8898 124.163 27.4212 124.335 27.899C124.507 28.3763 124.752 28.7815 125.07 29.1144C125.387 29.447 125.804 29.6457 126.321 29.71C126.869 29.785 127.342 29.6884 127.741 29.4202C128.138 29.1518 128.462 28.7844 128.709 28.3175C128.957 27.8504 129.131 27.3112 129.233 26.6994C129.336 26.0877 129.365 25.4732 129.322 24.8559C129.279 24.2387 129.166 23.6566 128.983 23.1094C128.8 22.5619 128.548 22.1111 128.225 21.7567C128.419 21.7034 128.65 21.6015 128.919 21.451C129.188 21.3009 129.465 21.1317 129.75 20.9438C129.82 20.8977 129.889 20.849 129.959 20.8017C129.933 21.182 129.919 21.4532 129.919 21.6121C129.909 21.9663 129.885 22.4036 129.847 22.924C129.809 23.4446 129.785 23.992 129.774 24.5661C129.764 25.1402 129.785 25.7199 129.839 26.3051C129.893 26.8898 130.006 27.4212 130.178 27.899C130.35 28.3763 130.595 28.7815 130.912 29.1144C131.229 29.447 131.646 29.6457 132.163 29.71C132.711 29.785 133.185 29.6884 133.583 29.4202C133.981 29.1518 134.304 28.7844 134.551 28.3175C134.799 27.8504 134.973 27.3112 135.076 26.6994C135.178 26.0877 135.207 25.4732 135.165 24.8559C135.121 24.2387 135.008 23.6566 134.826 23.1094C134.643 22.5619 134.39 22.1111 134.067 21.7567C134.261 21.7034 134.492 21.6015 134.761 21.451C135.03 21.3009 135.307 21.1317 135.592 20.9438C135.741 20.8462 135.888 20.7455 136.035 20.6419C136.09 21.1669 136.209 21.6272 136.399 22.0145C136.631 22.4869 136.945 22.8517 137.343 23.1094C137.741 23.3668 138.209 23.5091 138.748 23.5359C139.286 23.5625 139.872 23.4634 140.507 23.2379C140.98 23.0663 141.391 22.8517 141.741 22.5941C142.091 22.3364 142.406 22.0224 142.685 21.6524C142.702 21.6309 142.717 21.6076 142.733 21.586C142.782 21.7363 142.838 21.8807 142.903 22.0145C143.135 22.4869 143.449 22.8517 143.848 23.1094C144.245 23.3668 144.714 23.5091 145.252 23.5359C145.789 23.5625 146.376 23.4634 147.011 23.2379C147.484 23.0663 147.896 22.8517 148.246 22.5941C148.595 22.3364 148.909 22.0224 149.19 21.6524C149.469 21.2818 149.724 20.8552 149.956 20.3723C150.187 19.8893 150.421 19.3368 150.658 18.7141C150.701 18.5425 150.66 18.3895 150.537 18.2553Z" fill="black"/>
</g>
</svg>
