<svg width="123" height="21" viewBox="0 0 123 21" fill="none" xmlns="http://www.w3.org/2000/svg">
<mask id="mask0_96_387" style="mask-type:luminance" maskUnits="userSpaceOnUse" x="0" y="0" width="123" height="21">
<path d="M122.173 0.5H0.960938V20.5H122.173V0.5Z" fill="white"/>
</mask>
<g mask="url(#mask0_96_387)">
<path d="M112.416 0.5H102.658V20.0152H122.173V10.2576C122.173 4.86364 117.809 0.5 112.416 0.5ZM4.39528 19.9949H0.981139V8.27778L0.960938 5.00505H4.11246V6.56061H4.13266C4.73872 5.57071 6.25387 4.56061 8.39528 4.56061C12.0518 4.56061 14.8397 6.96465 14.8397 11.7727V19.9747H11.4053V11.7121C11.4053 9.24747 10.2741 7.61111 7.89023 7.61111C5.5266 7.61111 4.39528 9.26768 4.39528 11.7121V19.9949Z" fill="black"/>
<path d="M32.4761 15.5303C31.567 18.3384 29.0619 20.4394 25.1427 20.4394C20.7387 20.4394 17.5266 17.2879 17.5266 12.4394C17.5266 7.65151 20.8599 4.56061 25.0821 4.56061C29.2842 4.56061 32.3347 7.61111 32.3347 12.4192V13.3687H21.0013C21.2639 16.0152 22.8801 17.5909 25.3246 17.5909C27.2639 17.5909 28.3549 16.7222 28.7993 15.5303H32.4761ZM21.0013 10.7626H28.7589C28.5569 8.84343 27.3246 7.22727 24.9811 7.22727C22.7589 7.22727 21.3044 8.88384 21.0013 10.7626ZM42.6377 20.4394C38.4761 20.4394 34.8801 17.6919 34.8801 12.5C34.8801 7.34848 38.5973 4.56061 42.7589 4.56061C46.5569 4.56061 49.2842 6.86364 49.9104 9.87374H46.2943C45.87 8.64141 44.6983 7.65152 42.7589 7.65152C40.1528 7.65152 38.3145 9.57071 38.3145 12.5C38.3145 15.4293 40.1528 17.3889 42.7185 17.3889C44.7589 17.3889 46.0114 16.3182 46.3953 15.0859H50.0316C49.4054 18.0758 46.4155 20.4394 42.6377 20.4394ZM60.2741 20.1162C56.7791 20.1162 54.5165 18.3182 54.5165 14.2172V8.01515H51.5266V5.02525H54.5165V0.5H56.072C57.1023 0.5 57.9306 1.32828 57.9306 2.35859V5.02525H62.0922V8.01515H57.9306V14.0354C57.9306 16.4394 59.365 17.0253 60.9205 17.0253C61.3745 17.0275 61.8277 16.9869 62.2741 16.904V19.8939C61.8094 20.0354 61.0215 20.1162 60.2741 20.1162ZM64.7387 12.5404C64.7387 7.83333 67.7084 4.58081 72.3145 4.58081C74.1124 4.58081 76.5367 5.63131 77.1629 7.10606H77.1831V5.04545H80.4761L80.4559 8.31818V20.0354H77.1629V17.9343H77.1427C76.5165 19.4091 74.1528 20.4596 72.3145 20.4596C67.7084 20.4394 64.7387 17.2475 64.7387 12.5404ZM77.1427 12.5404C77.1427 9.4899 75.1629 7.71212 72.6781 7.71212C70.1326 7.71212 68.2134 9.4899 68.2134 12.5404C68.2134 15.5909 70.1326 17.3081 72.6781 17.3081C75.0619 17.3081 77.1427 15.5909 77.1427 12.5404ZM92.7387 8.01515C89.8902 8.01515 88.1528 9.63131 88.1528 12.6818V19.9949H84.7387V8.27778L84.6983 5.00505H87.9912V7.4697H88.0518C88.6175 5.79293 90.2943 4.56061 92.4357 4.56061C93.0417 4.56061 93.4054 4.62121 93.4054 4.62121V8.01515H92.7387Z" fill="black"/>
</g>
</svg>
