<svg width="80" height="19" viewBox="0 0 80 19" fill="none" xmlns="http://www.w3.org/2000/svg">
<path fill-rule="evenodd" clip-rule="evenodd" d="M3.45824 0V15.9319H9.28696V18.6799H0.35498V0H3.45824ZM20.2418 7.92535V6.24516H23.1826V18.6799H20.2411V16.9984C19.8459 17.6211 19.2834 18.1106 18.5542 18.4661C17.8265 18.8216 17.0932 18.9993 16.3557 18.9993C15.4022 18.9993 14.5295 18.8257 13.7383 18.4793C12.9681 18.1476 12.2746 17.6617 11.7009 17.0518C11.1337 16.4463 10.6854 15.7403 10.3793 14.9703C10.0612 14.1722 9.9007 13.3205 9.90664 12.4619C9.90664 11.5905 10.0642 10.7588 10.3793 9.96656C10.6834 9.19187 11.1318 8.4814 11.7009 7.87258C12.2747 7.26256 12.9681 6.77646 13.7383 6.44442C14.5295 6.09727 15.4022 5.9237 16.3557 5.9237C17.0932 5.9237 17.8265 6.10213 18.5549 6.45831C19.2834 6.81378 19.8459 7.30326 20.2418 7.92535ZM19.9713 13.983C20.1524 13.4965 20.244 12.9814 20.2418 12.4625C20.2418 11.9279 20.1512 11.4211 19.9713 10.9407C19.8024 10.4785 19.5461 10.0529 19.2164 9.68676C18.8865 9.32672 18.4873 9.03632 18.0426 8.83279C17.5833 8.61964 17.0751 8.51272 16.5175 8.51272C15.9598 8.51272 15.4559 8.61964 15.0063 8.83279C14.5567 9.04663 14.1698 9.33129 13.8464 9.68676C13.5174 10.0511 13.2653 10.4775 13.1047 10.9407C12.9321 11.4293 12.8453 11.9439 12.8482 12.4619C12.8482 12.9958 12.9332 13.5033 13.1047 13.9824C13.2651 14.4458 13.5173 14.8724 13.8464 15.2369C14.1728 15.5949 14.567 15.8851 15.0063 16.0909C15.4559 16.3048 15.9598 16.411 16.5175 16.411C17.0751 16.411 17.584 16.3048 18.0426 16.0916C18.4874 15.8883 18.8866 15.5978 19.2164 15.2376C19.5463 14.8713 19.8025 14.4455 19.9713 13.983ZM25.5031 18.6792V6.24446H33.4906V9.10634H28.444V18.6792H25.5031ZM44.1492 7.92535V6.24516H47.09V18.6799H44.1485V16.9984C43.7525 17.6211 43.1907 18.1106 42.4616 18.4661C41.7339 18.8216 41.0006 18.9993 40.2631 18.9993C39.3089 18.9993 38.4369 18.8257 37.6457 18.4793C36.8755 18.1476 36.182 17.6617 35.6082 17.0518C35.041 16.4463 34.5928 15.7403 34.2866 14.9703C33.9686 14.1722 33.8081 13.3205 33.814 12.4619C33.814 11.5905 33.9709 10.7588 34.2866 9.96656C34.5908 9.19187 35.0392 8.4814 35.6082 7.87258C36.182 7.26256 36.8755 6.77646 37.6457 6.44442C38.4369 6.09727 39.3089 5.9237 40.2631 5.9237C41.0006 5.9237 41.7339 6.10213 42.4623 6.45831C43.1907 6.81378 43.7525 7.30326 44.1492 7.92535ZM43.8787 13.983C44.0595 13.4964 44.1509 12.9814 44.1485 12.4625C44.1485 11.9279 44.0579 11.4211 43.8787 10.9407C43.7095 10.4785 43.4531 10.0528 43.1231 9.68676C42.7932 9.32672 42.394 9.03632 41.9493 8.83279C41.4906 8.61964 40.9825 8.51272 40.4248 8.51272C39.8672 8.51272 39.3632 8.61964 38.9136 8.83279C38.464 9.04663 38.0772 9.33129 37.7537 9.68676C37.4246 10.0511 37.1721 10.4774 37.0114 10.9407C36.8387 11.4293 36.7519 11.9439 36.7549 12.4619C36.7549 12.9958 36.8399 13.5033 37.0114 13.9824C37.1719 14.4459 37.4244 14.8725 37.7537 15.2369C38.0802 15.5949 38.4743 15.8851 38.9136 16.0909C39.3632 16.3048 39.8672 16.411 40.4248 16.411C40.9825 16.411 41.4913 16.3048 41.9493 16.0916C42.3941 15.8883 42.7933 15.5978 43.1231 15.2376C43.4532 14.8714 43.7097 14.4455 43.8787 13.983ZM58.8813 6.24446H61.8605L57.0327 18.6792H53.337L48.5092 6.24446H51.4884L55.1848 15.7667L58.8813 6.24446ZM68.2747 5.92509C72.28 5.92509 75.011 9.43474 74.498 13.5429H64.7407C64.7407 14.6155 65.8357 16.6894 68.4364 16.6894C70.674 16.6894 72.174 14.7419 72.174 14.7419L74.1606 16.2624C72.3845 18.1384 70.9298 19 68.6518 19C64.5811 19 61.8228 16.4533 61.8228 12.4625C61.8228 8.85223 64.6738 5.92509 68.2747 5.92509ZM64.7483 11.3815H71.7969C71.7753 11.142 71.3933 8.235 68.2517 8.235C65.1101 8.235 64.7714 11.142 64.7483 11.3815ZM76.4135 18.6792V0H79.355V18.6792H76.4135Z" fill="black"/>
</svg>
