<svg width="105" height="27" viewBox="0 0 105 27" fill="none" xmlns="http://www.w3.org/2000/svg">
<mask id="mask0_96_415" style="mask-type:luminance" maskUnits="userSpaceOnUse" x="0" y="0" width="105" height="27">
<path d="M104.355 0.5H0.685059V26.5H104.355V0.5Z" fill="white"/>
</mask>
<g mask="url(#mask0_96_415)">
<path d="M24.6796 12.7214H4.29481C3.77575 12.7214 3.35107 12.2967 3.35107 11.7777V10.3385C3.35107 8.71052 4.6723 7.38928 6.30025 7.38928H22.6505C24.2785 7.38928 25.5997 8.71052 25.5997 10.3385V11.7777C25.6233 12.2967 25.1986 12.7214 24.6796 12.7214Z" fill="black"/>
<path d="M20.3857 5.83212H8.58891C8.06985 5.83212 7.62158 5.40744 7.62158 4.86479C7.62158 2.45826 9.57984 0.5 11.9864 0.5H16.9882C19.3947 0.5 21.353 2.45826 21.353 4.86479C21.353 5.40744 20.9283 5.83212 20.3857 5.83212Z" fill="black"/>
<path d="M25.6234 14.2786H3.35112C1.88832 14.2786 0.685059 15.4818 0.685059 16.9446C0.685059 18.4074 1.88832 19.6107 3.35112 19.6107H11.2549C11.5381 18.1007 12.8593 16.9446 14.4636 16.9446C16.068 16.9446 17.4128 18.1007 17.696 19.6107H25.5998C27.0626 19.6107 28.2658 18.4074 28.2658 16.9446C28.2658 15.4818 27.0862 14.2786 25.6234 14.2786Z" fill="black"/>
<path d="M24.6561 21.1678H17.7432V26.5H22.9337C24.3965 26.5 25.5998 25.2967 25.5998 23.8339V22.1352C25.6234 21.6161 25.1987 21.1678 24.6561 21.1678Z" fill="black"/>
<path d="M4.29498 21.1678C3.77592 21.1678 3.32764 21.5925 3.32764 22.1352V23.8339C3.32764 25.2967 4.53091 26.5 5.99371 26.5H11.1843V21.1678C11.2079 21.1678 4.29498 21.1678 4.29498 21.1678Z" fill="black"/>
<path d="M49.3819 15.3639C49.3819 18.2659 47.3765 20.1297 44.7576 20.1297C43.5072 20.1297 42.5162 19.7287 41.8556 18.9265V19.9882H39.2839V7.22412H41.9736V11.7305C42.6578 10.9755 43.6015 10.598 44.7576 10.598C47.3529 10.598 49.3819 12.4619 49.3819 15.3639ZM46.6451 15.3639C46.6451 13.7595 45.6306 12.7922 44.2858 12.7922C42.9409 12.7922 41.9264 13.7595 41.9264 15.3639C41.9264 16.9682 42.9409 17.9356 44.2858 17.9356C45.6306 17.9356 46.6451 16.9682 46.6451 15.3639Z" fill="black"/>
<path d="M58.1586 17.0862L59.5978 18.6434C58.7484 19.6343 57.4508 20.1298 55.7757 20.1298C52.567 20.1298 50.4907 18.1243 50.4907 15.3639C50.4907 12.6035 52.5905 10.598 55.4454 10.598C58.0642 10.598 60.2112 12.3203 60.2348 15.2931L53.3691 16.6144C53.7702 17.5345 54.6196 17.9828 55.8229 17.9828C56.8138 17.9828 57.5216 17.6997 58.1586 17.0862ZM53.1096 15.0808L57.616 14.2078C57.3564 13.2641 56.5542 12.6271 55.4218 12.6271C54.1005 12.6271 53.1568 13.5236 53.1096 15.0808Z" fill="black"/>
<path d="M69.0116 17.0862L70.4507 18.6434C69.6014 19.6343 68.3038 20.1298 66.6287 20.1298C63.42 20.1298 61.3438 18.1243 61.3438 15.3639C61.3438 12.6035 63.4436 10.598 66.2984 10.598C68.9173 10.598 71.0642 12.3203 71.0878 15.2931L64.2458 16.6144C64.6468 17.5345 65.4962 17.9828 66.6995 17.9828C67.6668 17.9828 68.3746 17.6997 69.0116 17.0862ZM63.9626 15.0808L68.469 14.2078C68.2095 13.2641 67.4073 12.6271 66.2748 12.6271C64.9536 12.6271 64.0334 13.5236 63.9626 15.0808Z" fill="black"/>
<path d="M82.3657 14.7033V20.0118H79.676V15.1043C79.676 13.618 78.9918 12.9101 77.7885 12.9101C76.4909 12.9101 75.5708 13.7123 75.5708 15.4111V19.9882H72.8811V7.22412H75.5708V11.7069C76.3022 10.9755 77.3403 10.598 78.5199 10.598C80.7141 10.598 82.3657 11.872 82.3657 14.7033Z" fill="black"/>
<path d="M84.4653 7.93198C84.4653 7.08261 85.1496 6.422 86.1405 6.422C87.1314 6.422 87.8156 7.03543 87.8156 7.8612C87.8156 8.75775 87.1314 9.41837 86.1405 9.41837C85.1496 9.41837 84.4653 8.78134 84.4653 7.93198ZM84.7956 10.7396H87.4853V20.0118H84.7956C84.7956 19.9882 84.7956 10.7396 84.7956 10.7396Z" fill="black"/>
<path d="M89.656 7.93198C89.656 7.08261 90.3402 6.422 91.3312 6.422C92.3221 6.422 93.0063 7.03543 93.0063 7.8612C93.0063 8.75775 92.3221 9.41837 91.3312 9.41837C90.3402 9.41837 89.656 8.78134 89.656 7.93198ZM89.9863 10.7396H92.676V20.0118H89.9863C89.9863 19.9882 89.9863 10.7396 89.9863 10.7396Z" fill="black"/>
<path d="M104.355 10.7396L100.438 20.0119H97.6542L93.7612 10.7396H96.5453L99.117 17.0391L101.76 10.7396C101.783 10.7396 104.355 10.7396 104.355 10.7396Z" fill="black"/>
</g>
</svg>
