<?xml version="1.0" encoding="UTF-8"?>
<svg id="Layer_1" xmlns="http://www.w3.org/2000/svg" xmlns:xlink="http://www.w3.org/1999/xlink" version="1.1" viewBox="0 0 15 14">
  <!-- Generator: Adobe Illustrator 29.4.0, SVG Export Plug-In . SVG Version: 2.1.0 Build 152)  -->
  <defs>
    <style>
      .st0 {
        fill: none;
      }

      .st1 {
        clip-path: url(#clippath);
      }
    </style>
    <clipPath id="clippath">
      <rect class="st0" x=".4" width="14" height="14"/>
    </clipPath>
  </defs>
  <g class="st1">
    <path d="M13.6,9.9l-1.4-1.4c-.2-.2-.3-.3-.5-.4s-.4-.1-.6-.1-.4,0-.6.1-.4.2-.5.4l-.3.3c-1.4-1.2-2.8-2.5-4-4l.3-.3c.3-.3.5-.7.5-1.2s-.2-.9-.5-1.2l-1.4-1.4c-.3-.3-.7-.5-1.2-.5s-.9.2-1.2.5l-.8.8c-.4.4-.6.9-.7,1.4s0,1.1.4,1.5c2.3,3.5,5.3,6.5,8.8,8.8.4.3,1,.4,1.5.4.5,0,1-.3,1.4-.7l.8-.8c.2-.2.3-.3.4-.5,0-.2.1-.4.1-.6s0-.4-.1-.6c0-.2-.2-.4-.4-.5Z"/>
  </g>
</svg>